PathFileType	4	(X/Y/Z)	AB03\squats_1.trc
DataRate	CameraRate	NumFrames	NumMarkers	Units	OrigDataRate	OrigDataStartFrame	OrigNumFrames
200.000000	200.000000	4	35	mm	200.000000	231	309
Frame#	Time	C7			LSHO			STRN			LASI			RASI			LPSI			RPSI			LGTR			RGTR			LTHC			LTHL			LTHR			LKNE			LMKNE			LSHC			LSHL			LSHR			LANK			LMANK			LMT1			LMT5			LCAL			RTHC			RTHL			RTHR			RKNE			RMKNE			RSHC			RSHL			RSHR			RANK			RMANK			RMT1			RMT5			RCAL			
		X1	Y1	Z1	X2	Y2	Z2	X3	Y3	Z3	X4	Y4	Z4	X5	Y5	Z5	X6	Y6	Z6	X7	Y7	Z7	X8	Y8	Z8	X9	Y9	Z9	X10	Y10	Z10	X11	Y11	Z11	X12	Y12	Z12	X13	Y13	Z13	X14	Y14	Z14	X15	Y15	Z15	X16	Y16	Z16	X17	Y17	Z17	X18	Y18	Z18	X19	Y19	Z19	X20	Y20	Z20	X21	Y21	Z21	X22	Y22	Z22	X23	Y23	Z23	X24	Y24	Z24	X25	Y25	Z25	X26	Y26	Z26	X27	Y27	Z27	X28	Y28	Z28	X29	Y29	Z29	X30	Y30	Z30	X31	Y31	Z31	X32	Y32	Z32	X33	Y33	Z33	X34	Y34	Z34	X35	Y35	Z35	

232	25.645	-2165.506515849114	1375.789316375196	2473.166159874385	-2092.233663088094	1298.017318440496	2339.186755490711	-2098.542159887955	1196.429461282738	2493.694173423671	-2339.622311043202	903.677043294692	2331.44019597887	-2362.482002053463	900.8544402294882	2652.657827422835	-2534.272381595788	1085.847120087185	2424.509052407996	-2538.072798834567	1087.475536507255	2529.372095171627	-2431.96918627998	913.0987233122546	2247.212799578419	-2446.875037032059	924.821485497672	2722.601206264338	-2388.219435216154	807.5537163511704	2227.186536390526	-2264.180233555152	771.8869792038246	2342.819628236058	-2490.34613741278	678.8809610274684	2266.713193809579	-2239.063249500345	517.0108218607726	2211.655300081992	-2250.331403274975	474.385252910766	2373.335964723563	-2315.69570637746	306.0490202405178	2152.679445196979	-2241.418928644154	262.9306783280254	2212.334353157415	-2373.856788421954	251.5512773607321	2223.929819478004	-2330.162026448064	121.9362603249151	2144.941396864183	-2298.023223047998	110.6348301329739	2241.807622758346	-2192.996776406475	58.6989658691728	2212.539136328963	-2219.159820859787	56.83608130626148	2106.398899069809	-2406.439878167717	70.31907067508435	2199.474543968925	-2479.566179089373	627.8237484085599	2646.865728876417	-2409.732081401733	758.9396487336521	2747.676665326849	-2268.360983578387	775.6635656329427	2626.783249311298	-2242.500736162059	522.4352136150429	2746.791899175643	-2217.173106390661	494.9820822104495	2593.067959039238	-2364.819470956311	222.6400085541794	2719.24112678019	-2294.770002421878	317.5197416070733	2789.771345378562	-2239.037479031075	265.0552570412262	2729.627408594128	-2326.669959221233	116.8801532887389	2792.553657116105	-2306.127195701742	115.7614198799031	2699.768022781267	-2179.277388754782	49.28594045522602	2706.530890005377	-2205.251357542029	57.38738972653869	2821.553705930307	-2401.227491898656	68.57890503123551	2741.216080071177	
233	25.65	-2166.537312782626	1379.018722791434	2473.101320537586	-2093.199215201282	1301.43047179921	2338.766971890567	-2098.770964703761	1200.003334055773	2493.623021787255	-2338.624804151342	905.6321913966108	2331.406759382537	-2361.495337433538	902.6463326865871	2652.472598313687	-2533.739853467164	1087.202945013963	2424.3616723126	-2537.55537655675	1088.79016842758	2529.233822922533	-2430.834333342232	914.3683386387358	2247.224012340525	-2445.990393410915	926.0662025481735	2722.316346917115	-2387.186857262999	808.3437433360352	2227.211749471774	-2263.227260917137	772.1714105637585	2342.833446831664	-2489.761517811969	680.0793999277963	2266.914234911044	-2239.209884511744	517.0605436649529	2211.896661353141	-2250.611866406306	474.4551535341205	2373.590973276663	-2315.767304177518	306.1032954607883	2152.797465853991	-2241.481582363955	262.9801976925507	2212.4560692635	-2373.91094467427	251.5281885355174	2224.001058549333	-2330.140916352134	121.9474303844849	2144.966363453004	-2298.030470663319	110.5874890704877	2241.818306858152	-2192.972998796622	58.65823314311473	2212.539542758445	-2219.133981478459	56.81540906366183	2106.395517178852	-2406.419744376346	70.33998995122617	2199.47592558385	-2479.103231533296	628.8603280890003	2646.328361524868	-2408.941476040886	759.6549396372146	2747.312009869427	-2267.374961700766	775.9298155967244	2626.593633135583	-2242.560154731792	522.4853458128765	2746.332625243549	-2217.305333372396	494.9582703488731	2592.606568404539	-2364.831602875543	222.6102348399399	2719.086514989435	-2294.780041922512	317.6001534804947	2789.496599132802	-2239.070208189441	265.0858365285039	2729.379349556648	-2326.651710572865	116.9059340703468	2792.495935579504	-2306.096441631188	115.7215686661847	2699.696024085531	-2179.227610260778	49.21776328416179	2706.542456909462	-2205.196588712978	57.38833294070275	2821.551239397961	-2401.208453658185	68.60069620565821	2741.202823999154	
234	25.655	-2167.57754185113	1382.253687545546	2473.039264529747	-2094.173557977406	1304.852661510192	2338.345771485147	-2099.00599186615	1203.586959401173	2493.554823851752	-2337.628427930502	907.5998334837029	2331.367405221698	-2360.494634459514	904.4430035976432	2652.28768709996	-2533.200680515001	1088.566275560434	2424.223679503669	-2537.025432982716	1090.111495977703	2529.104165138213	-2429.701033999265	915.6471383694559	2247.23775455142	-2445.083895241754	927.3155772562604	2722.032044906362	-2386.164505751616	809.1490795196966	2227.23351044627	-2262.280890395465	772.4615180747088	2342.834712154794	-2489.187080096615	681.2967788021213	2267.115209615248	-2239.384251917695	517.1183131297411	2212.126448928444	-2250.904808479603	474.5392583080575	2373.835712465954	-2315.857609401784	306.1601469636693	2152.906665342243	-2241.556112904	263.0379603319029	2212.567525445204	-2373.977764626201	251.5052028062249	2224.067353146278	-2330.122961439791	121.9583482462366	2144.987564367175	-2298.037601663658	110.546102731273	2241.82342298856	-2192.95119940411	58.62157599315168	2212.537564013476	-2219.109405447265	56.79422546882088	2106.388846658719	-2406.400140470485	70.36048637736501	2199.476460211025	-2478.642238455922	629.9109012476845	2645.79154063344	-2408.14410264681	760.3821648117561	2746.944312998909	-2266.38554444087	776.1941556761594	2626.396804757078	-2242.633238192498	522.5372651192431	2745.870953394006	-2217.451606095336	494.9362568643867	2592.142303478493	-2364.849684664941	222.5807143726046	2718.932081861135	-2294.799607751007	317.6810198435643	2789.220410894357	-2239.108478315208	265.1204293139421	2729.131127107984	-2326.633466389757	116.9319540592409	2792.438231313256	-2306.066395594463	115.6820031420236	2699.625472236518	-2179.178057529643	49.15253992757522	2706.555082586176	-2205.142093960042	57.38863888167943	2821.550331843279	-2401.189652044924	68.62247827147105	2741.190011054619	
235	25.66	-2168.627418652793	1385.493645432319	2472.979342189146	-2095.156353683515	1308.283440350301	2337.924179622572	-2099.247309393714	1207.180351326198	2493.489270846427	-2336.633069434683	909.5802432540041	2331.320852433433	-2359.479793779492	906.2446089204944	2652.102812989987	-2532.654922323507	1089.936927100475	2424.095178682103	-2536.483106651358	1091.439523284339	2528.983155478756	-2428.570185575496	916.934884500972	2247.253597848332	-2444.155186263878	928.5696742371093	2721.748089757841	-2385.153342513173	809.969838697969	2227.251539425208	-2261.341637594934	772.757597558502	2342.822782261555	-2488.623062845266	682.5332679648683	2267.316198478995	-2239.586614119068	517.1844109342254	2212.344673774462	-2251.209340904843	474.6385886715522	2374.070506787438	-2315.966547660251	306.2195588915687	2153.006975584905	-2241.642622698215	263.1040851178616	2212.668765703776	-2374.057187999861	251.4823235176461	2224.12857829322	-2330.108152358221	121.9690548487654	2145.005067770998	-2298.04365539322	110.51147522744	2241.823531775597	-2192.931200296532	58.58909801955656	2212.53306070151	-2219.086122086772	56.77250973149189	2106.378665544754	-2406.380974728038	70.38063886950003	2199.47623142356	-2478.183789055628	630.9753311805938	2645.255614094332	-2407.340524152384	761.1218002477843	2746.573927068682	-2265.393420907119	776.4565034546372	2626.193350317772	-2242.720663536865	522.5912388039753	2745.40743396049	-2217.612213759917	494.9164672654123	2591.675878346643	-2364.873937883614	222.5515309713068	2718.77805886942	-2294.82907571166	317.7623278137212	2788.942979664967	-2239.152633849961	265.1591813661535	2728.883007966466	-2326.61494503168	116.9583035785232	2792.380562600254	-2306.037133688024	115.6428083969391	2699.556384065801	-2179.128967599395	49.09036499980174	2706.568602567403	-2205.088094791824	57.38824139726637	2821.55090985875	-2401.171168029056	68.64420912102966	2741.177576305606	
